<svg width="50" height="50" viewBox="0 0 50 50" fill="none" xmlns="http://www.w3.org/2000/svg">

    //Sunny
    <g id="sunny" clip-path="url(#clip0_48_299)">
        <path d="M16 4.33333V1M24.3333 7.66667L27.6667 4.33333M27.6667 16H31M24.3333 24.3333L27.6667 27.6667M16 27.6667V31M7.66667 24.3333L4.33333 27.6667M4.33333 16H1M4.33333 4.33333L7.66667 7.66667M21 16C21 18.7614 18.7614 21 16 21C13.2386 21 11 18.7614 11 16C11 13.2386 13.2386 11 16 11C18.7614 11 21 13.2386 21 16Z"
              stroke="#FF6F40" stroke-linecap="round" stroke-linejoin="round"/>
    </g>

    //Globe
    <g id="globe" clip-path="url(#clip0_48_299)">
        <path d="M21 11C21 16.5228 16.5228 21 11 21C5.47715 21 1 16.5228 1 11M21 11C21 5.47715 16.5228 1 11 1C5.47715 1 1 5.47715 1 11M21 11H1M11 1.06174C13.7278 3.50316 15.4445 7.05111 15.4445 11C15.4445 14.9489 13.7278 18.4968 11 20.9383M11.0695 21C8.30141 18.5569 6.55556 14.9823 6.55556 11C6.55556 7.01769 8.30141 3.44315 11.0695 1"
              stroke="#" stroke-width="2" stroke-linecap="round" stroke-linejoin="round"/>
    </g>

    //Plus
    <g id="plus" clip-path="url(#clip0_48_299)">
        <path d="M1 11H21M11 1L11 21" stroke="#" stroke-width="2" stroke-linecap="round" stroke-linejoin="round"/>
    </g>

    //User
    <g id="user" clip-path="url(#clip0_48_299)">
        <path d="M1 21C2.06365 17.5819 4.79997 16.5556 11 16.5556C17.2 16.5556 19.9364 17.5819 21 21M16.5556 6.55556C16.5556 9.6238 14.0682 12.1111 11 12.1111C7.93175 12.1111 5.44444 9.6238 5.44444 6.55556C5.44444 3.48731 7.93175 1 11 1C14.0682 1 16.5556 3.48731 16.5556 6.55556Z"
              stroke="#" stroke-width="2" stroke-linecap="round"/>
    </g>
</svg>
